<?xml version="1.0" encoding="utf-8"?>
<!-- Generator: Adobe Illustrator 24.0.1, SVG Export Plug-In . SVG Version: 6.00 Build 0)  -->
<svg version="1.1" id="Capa_1" xmlns="http://www.w3.org/2000/svg" xmlns:xlink="http://www.w3.org/1999/xlink" x="0px" y="0px"
	 viewBox="0 0 641.5 200" style="enable-background:new 0 0 641.5 200;" xml:space="preserve">
<style type="text/css">
	.st0{fill:#1EBB68;}
	.st1{fill:#16A557;}
	.st2{fill:url(#SVGID_1_);}
	.st3{fill:url(#SVGID_2_);}
	.st4{fill:#CEE185;}
</style>
<g>
	<polygon class="st0" points="93.1,0 93.1,0 93.1,0 0,33.2 14.2,156.3 93.1,200 93.1,200 93.1,200 172,156.3 186.2,33.2 	"/>
	<polygon class="st1" points="93.1,0 93.1,22.2 93.1,22.1 93.1,123.4 93.1,123.4 93.1,200 93.1,200 172,156.3 186.2,33.2 	"/>
</g>
<g>
	<linearGradient id="SVGID_1_" gradientUnits="userSpaceOnUse" x1="93.1" y1="194" x2="93.1" y2="3.9895">
		<stop  offset="0" style="stop-color:#1EBB68"/>
		<stop  offset="1" style="stop-color:#06944A"/>
	</linearGradient>
	<polygon class="st2" points="93.1,12 93.1,12 93.1,12 11.17,41.22 23.67,149.54 93.1,188 93.1,188 93.1,188 162.53,149.54 
		175.03,41.22 	"/>
	<linearGradient id="SVGID_2_" gradientUnits="userSpaceOnUse" x1="11.172" y1="100" x2="175.028" y2="100">
		<stop  offset="0" style="stop-color:#1EBB68"/>
		<stop  offset="1" style="stop-color:#06944A"/>
	</linearGradient>
	<path class="st3" d="M93.1,16.25l77.59,27.67l-11.9,103.13L93.1,183.43l-65.69-36.39L15.51,43.92L93.1,16.25 M93.1,12L11.17,41.22
		l12.5,108.33L93.1,188l69.43-38.46l12.5-108.33L93.1,12L93.1,12z"/>
</g>
<g>
	<path class="st4" d="M57.87,100.05c0,0-5.76-7.1-12.87-7.1c-7.11,0-12.87,3.18-12.87,7.1c0,3.92,5.76,7.1,12.87,7.1
		C52.11,107.16,57.87,100.05,57.87,100.05z"/>
	<path class="st4" d="M141.2,92.84c-7.11,0-12.87,7.1-12.87,7.1s5.76,7.1,12.87,7.1c7.11,0,12.87-3.18,12.87-7.1
		C154.07,96.02,148.31,92.84,141.2,92.84z"/>
	<g>
		<path class="st4" d="M93.05,64.77c0,0,7.1-5.76,7.1-12.87c0-7.11-3.18-12.87-7.1-12.87c-3.92,0-7.1,5.76-7.1,12.87
			C85.94,59.01,93.05,64.77,93.05,64.77z"/>
		<path class="st4" d="M100.26,148.1c0-7.11-7.1-12.87-7.1-12.87s-7.1,5.76-7.1,12.87c0,7.11,3.18,12.87,7.1,12.87
			C97.08,160.97,100.26,155.21,100.26,148.1z"/>
	</g>
	<g>
		<path class="st4" d="M64.15,139.07c5.03-5.03,4.08-14.13,4.08-14.13s-9.1-0.95-14.13,4.08c-5.03,5.03-6.85,11.35-4.08,14.13
			S59.12,144.1,64.15,139.07z"/>
	</g>
	<g>
		<path class="st4" d="M118.05,124.87c0,0-0.95,9.1,4.08,14.13c5.03,5.03,11.35,6.85,14.13,4.08c2.77-2.77,0.95-9.1-4.08-14.13
			C127.15,123.93,118.05,124.87,118.05,124.87z"/>
		<path class="st4" d="M54.03,71.05c5.03,5.03,14.13,4.08,14.13,4.08s0.95-9.1-4.08-14.13c-5.03-5.03-11.35-6.85-14.13-4.08
			S49,66.02,54.03,71.05z"/>
	</g>
</g>
<g>
	<path class="st4" d="M104.41,107.7l4.82,6.83c-3.21,2.73-7.86,4.78-13.49,4.78c-11.72,0-18.76-7.72-18.76-19.06
		c0-11.34,7.28-19.58,18.96-19.58c5.5,0,9.67,1.54,13.29,4.54l-4.68,6.49c-2.46-1.71-5.23-2.73-8.17-2.73
		c-4.89,0-8.13,3.11-8.13,11.27c0,8.03,3.45,10.56,8.06,10.56C99.28,110.81,101.81,109.51,104.41,107.7z"/>
</g>
<g>
	<path class="st0" d="M236.81,73.41l3.14,4.45c-2.09,1.78-5.12,3.11-8.79,3.11c-7.63,0-12.21-5.03-12.21-12.41
		s4.74-12.75,12.35-12.75c3.58,0,6.3,1,8.65,2.96l-3.05,4.23c-1.6-1.11-3.4-1.78-5.32-1.78c-3.18,0-5.29,2.02-5.29,7.34
		c0,5.23,2.25,6.87,5.25,6.87C233.47,75.43,235.11,74.59,236.81,73.41z"/>
	<path class="st0" d="M260.17,80.21c-2.09,6.27-6.05,9.5-13.24,9.9l-0.8-4.96c4.65-0.58,6.32-1.89,7.61-4.94h-2.4l-7.5-23.63h7.43
		l4.58,19.13l4.98-19.13h7.21L260.17,80.21z"/>
	<path class="st0" d="M294.13,68.33c0,7.3-3.31,12.64-9.08,12.64c-2.31,0-4.18-0.85-5.61-2.47v10.83l-7.03,0.73V56.59h6.23
		l0.31,2.65c1.91-2.45,4.32-3.43,6.54-3.43C291.66,55.81,294.13,60.66,294.13,68.33z M279.45,63.73v9.97
		c0.98,1.45,1.98,2.11,3.47,2.11c2.49,0,3.96-2.07,3.96-7.39c0-5.87-1.33-7.43-3.56-7.43C281.69,60.99,280.47,62.04,279.45,63.73z"
		/>
	<path class="st0" d="M321.05,56.59l-1.31,9.88h-4.4V62.1c-2.67,0.49-4.74,3.11-5.85,6.63v6.76h4.67v4.72h-14.82V75.5h3.11V61.26
		h-3.11v-4.67h8.48l1.29,5.32c1.69-4.05,4.25-6.03,8.05-6.03C318.76,55.88,319.94,56.14,321.05,56.59z"/>
	<path class="st0" d="M337.59,75.85c2.16,0,4.18-0.76,6.05-1.96l2.83,3.83c-2.23,1.91-5.41,3.25-9.43,3.25
		c-8.12,0-12.28-5.21-12.28-12.55c0-6.99,4.09-12.61,11.52-12.61c6.74,0,11.08,4.52,11.08,12.12c0,0.8-0.04,1.8-0.13,2.51h-15.31
		C332.39,74.32,334.59,75.85,337.59,75.85z M331.83,66.22h8.68c-0.04-3.43-1.22-5.7-4.23-5.7
		C333.76,60.52,332.14,62.26,331.83,66.22z"/>
	<path class="st0" d="M365.92,73.72c0-1.51-0.89-2.07-5.61-3.36c-4.34-1.16-7.32-3.07-7.32-7.25c0-4.2,3.6-7.3,10.26-7.3
		c4.2,0,7.27,1.2,9.57,2.87l-2.8,4.14c-1.96-1.2-4.27-2-6.56-2s-3.38,0.6-3.38,1.82s0.96,1.71,5.58,3.05
		c4.58,1.29,7.56,2.85,7.56,7.48c0,5.18-5.14,7.81-11.17,7.81c-4.58,0-8.08-1.42-10.52-3.56l3.54-3.96
		c1.82,1.42,4.18,2.49,6.94,2.49C364.34,75.94,365.92,75.21,365.92,73.72z"/>
	<path class="st0" d="M392.62,73.72c0-1.51-0.89-2.07-5.61-3.36c-4.34-1.16-7.32-3.07-7.32-7.25c0-4.2,3.6-7.3,10.26-7.3
		c4.2,0,7.27,1.2,9.57,2.87l-2.8,4.14c-1.96-1.2-4.27-2-6.56-2s-3.38,0.6-3.38,1.82s0.96,1.71,5.58,3.05
		c4.58,1.29,7.56,2.85,7.56,7.48c0,5.18-5.14,7.81-11.17,7.81c-4.58,0-8.08-1.42-10.52-3.56l3.54-3.96
		c1.82,1.42,4.18,2.49,6.94,2.49C391.04,75.94,392.62,75.21,392.62,73.72z"/>
	<path class="st0" d="M406.53,65.33h19.27v5.47h-19.27V65.33z"/>
	<path class="st0" d="M450.43,73.41l3.14,4.45c-2.09,1.78-5.12,3.11-8.79,3.11c-7.63,0-12.21-5.03-12.21-12.41
		s4.74-12.75,12.35-12.75c3.58,0,6.3,1,8.65,2.96l-3.05,4.23c-1.6-1.11-3.4-1.78-5.32-1.78c-3.18,0-5.29,2.02-5.29,7.34
		c0,5.23,2.25,6.87,5.25,6.87C447.1,75.43,448.74,74.59,450.43,73.41z"/>
	<path class="st0" d="M466.37,72.76c0,2.29,0.89,3,2.4,3c1.45,0,3.03-0.98,4-2.56V56.59h7.03v23.63h-6.14l-0.31-2.76
		c-1.6,2.31-4.41,3.52-7.25,3.52c-4.58,0-6.76-2.85-6.76-7.34V56.59h7.03V72.76z"/>
	<path class="st0" d="M503.84,73.41l3.14,4.45c-2.09,1.78-5.12,3.11-8.79,3.11c-7.63,0-12.21-5.03-12.21-12.41
		s4.74-12.75,12.35-12.75c3.58,0,6.3,1,8.65,2.96l-3.05,4.23c-1.6-1.11-3.4-1.78-5.32-1.78c-3.18,0-5.29,2.02-5.29,7.34
		c0,5.23,2.25,6.87,5.25,6.87C500.5,75.43,502.15,74.59,503.84,73.41z"/>
	<path class="st0" d="M519.78,72.76c0,2.29,0.89,3,2.4,3c1.45,0,3.03-0.98,4-2.56V56.59h7.03v23.63h-6.14l-0.31-2.76
		c-1.6,2.31-4.41,3.52-7.25,3.52c-4.58,0-6.76-2.85-6.76-7.34V56.59h7.03V72.76z"/>
	<path class="st0" d="M561.85,62.73v17.49h-6.03V63.53c0-1.65-0.22-2.27-1.18-2.27c-0.73,0-1.51,0.36-2.45,1.54v17.42h-4.94V63.53
		c0-1.65-0.22-2.27-1.18-2.27c-0.73,0-1.51,0.36-2.45,1.54v17.42h-6.12V56.59h5.16l0.47,2.29c1.47-2,2.85-3.07,4.94-3.07
		c1.78,0,3.09,0.87,3.63,2.8c1.42-1.65,3.11-2.8,5.21-2.8C560.28,55.81,561.85,57.86,561.85,62.73z"/>
	<path class="st0" d="M579.24,55.81c6.07,0,8.72,4.85,8.72,12.53c0,7.3-3.31,12.64-9.46,12.64c-2.38,0-4.47-1.02-5.85-2.89
		l-0.27,2.14h-6.23V47.2l7.03-0.73v12.55C574.65,57.05,576.83,55.81,579.24,55.81z M580.7,68.42c0-5.87-1.47-7.43-3.69-7.43
		c-1.58,0-2.8,1.05-3.83,2.74v9.97c0.89,1.4,1.94,2.16,3.47,2.16C579.15,75.85,580.7,73.74,580.7,68.42z"/>
	<path class="st0" d="M604.63,75.85c2.16,0,4.18-0.76,6.05-1.96l2.83,3.83c-2.22,1.91-5.41,3.25-9.43,3.25
		c-8.12,0-12.28-5.21-12.28-12.55c0-6.99,4.09-12.61,11.52-12.61c6.74,0,11.08,4.52,11.08,12.12c0,0.8-0.04,1.8-0.13,2.51h-15.31
		C599.42,74.32,601.62,75.85,604.63,75.85z M598.86,66.22h8.68c-0.04-3.43-1.22-5.7-4.23-5.7C600.8,60.52,599.18,62.26,598.86,66.22
		z"/>
	<path class="st0" d="M641.5,56.59l-1.31,9.88h-4.41V62.1c-2.67,0.49-4.74,3.11-5.85,6.63v6.76h4.67v4.72h-14.82V75.5h3.12V61.26
		h-3.12v-4.67h8.48l1.29,5.32c1.69-4.05,4.25-6.03,8.05-6.03C639.21,55.88,640.39,56.14,641.5,56.59z"/>
	<path class="st0" d="M232.4,125.79c0-1.51-0.89-2.07-5.61-3.36c-4.34-1.16-7.32-3.07-7.32-7.25c0-4.2,3.6-7.3,10.26-7.3
		c4.2,0,7.27,1.2,9.57,2.87l-2.8,4.14c-1.96-1.2-4.27-2-6.56-2s-3.38,0.6-3.38,1.82s0.96,1.71,5.58,3.05
		c4.58,1.29,7.56,2.85,7.56,7.47c0,5.18-5.14,7.81-11.17,7.81c-4.58,0-8.08-1.42-10.52-3.56l3.54-3.96
		c1.82,1.42,4.18,2.49,6.94,2.49C230.82,128.02,232.4,127.28,232.4,125.79z"/>
	<path class="st0" d="M263.51,125.48l3.14,4.45c-2.09,1.78-5.12,3.12-8.79,3.12c-7.63,0-12.21-5.03-12.21-12.41
		c0-7.39,4.74-12.75,12.35-12.75c3.58,0,6.3,1,8.65,2.96l-3.05,4.23c-1.6-1.11-3.4-1.78-5.32-1.78c-3.18,0-5.29,2.02-5.29,7.34
		c0,5.23,2.25,6.87,5.25,6.87C260.17,127.5,261.82,126.66,263.51,125.48z"/>
	<path class="st0" d="M279.45,111c1.98-2.09,4.32-3.11,6.94-3.11c4.2,0,6.5,2.58,6.5,7.05v17.35h-7.03v-15.4
		c0-2.85-0.53-3.83-2.27-3.83c-1.49,0-2.8,1.09-4.14,2.87v16.35h-7.03V99.27l7.03-0.69V111z"/>
	<path class="st0" d="M310.89,127.93c2.16,0,4.18-0.76,6.05-1.96l2.83,3.83c-2.22,1.91-5.41,3.25-9.43,3.25
		c-8.12,0-12.28-5.21-12.28-12.55c0-6.99,4.09-12.61,11.52-12.61c6.74,0,11.08,4.52,11.08,12.12c0,0.8-0.04,1.8-0.13,2.51h-15.31
		C305.68,126.39,307.88,127.93,310.89,127.93z M305.13,118.29h8.68c-0.04-3.43-1.22-5.7-4.23-5.7
		C307.06,112.6,305.44,114.33,305.13,118.29z"/>
	<path class="st0" d="M348.23,114.8v17.49h-6.03V115.6c0-1.65-0.22-2.27-1.18-2.27c-0.73,0-1.51,0.36-2.45,1.54v17.42h-4.94V115.6
		c0-1.65-0.22-2.27-1.18-2.27c-0.73,0-1.51,0.36-2.45,1.54v17.42h-6.12v-23.63h5.16l0.47,2.29c1.47-2,2.85-3.07,4.94-3.07
		c1.78,0,3.09,0.87,3.63,2.8c1.42-1.65,3.11-2.8,5.21-2.8C346.65,107.88,348.23,109.93,348.23,114.8z"/>
	<path class="st0" d="M373.97,128.33l-1.45,4.63c-2.78-0.27-4.69-1.16-5.78-3.11c-1.82,2.18-4.85,3.2-7.79,3.2
		c-4.87,0-7.99-3.07-7.99-7.43c0-5.12,4.21-8.03,11.5-8.03h3.18v-0.89c0-2.47-1.62-3.63-4.67-3.63c-1.51,0-4.12,0.45-6.47,1.25
		l-1.62-4.67c3.05-1.16,6.58-1.76,9.21-1.76c7.03,0,10.32,2.94,10.32,8.34v9.25C372.42,127.26,372.86,127.93,373.97,128.33z
		 M365.65,125.41v-3.83h-1.74c-3.92,0-5.7,1.22-5.7,3.54c0,1.83,1.16,2.89,3.16,2.89C362.89,128.02,364.78,127.08,365.65,125.41z"/>
	<path class="st0" d="M392.76,133.04c-6.19,0-9.12-3.38-9.12-8.81v-10.72h-4.96v-4.85h4.96v-5.12l7.03-0.85v5.96h7.61l-0.69,4.85
		h-6.92v10.72c0,2.36,1.02,3.27,3.36,3.27c1.65,0,3.03-0.45,4.14-1.07l2.34,4.47C398.65,132.11,396.03,133.04,392.76,133.04z"/>
	<path class="st0" d="M420.37,127.48h6.01v4.81h-19.73v-4.81h6.7v-14.02h-6.47v-4.81h13.5V127.48z M420.26,100.25
		c0,2.25-1.71,3.98-4.14,3.98c-2.47,0-4.18-1.74-4.18-3.98s1.71-3.96,4.18-3.96C418.55,96.29,420.26,98,420.26,100.25z"/>
	<path class="st0" d="M450.43,125.48l3.14,4.45c-2.09,1.78-5.12,3.12-8.79,3.12c-7.63,0-12.21-5.03-12.21-12.41
		c0-7.39,4.74-12.75,12.35-12.75c3.58,0,6.3,1,8.65,2.96l-3.05,4.23c-1.6-1.11-3.4-1.78-5.32-1.78c-3.18,0-5.29,2.02-5.29,7.34
		c0,5.23,2.25,6.87,5.25,6.87C447.1,127.5,448.74,126.66,450.43,125.48z"/>
	<path class="st0" d="M472.73,125.79c0-1.51-0.89-2.07-5.61-3.36c-4.34-1.16-7.32-3.07-7.32-7.25c0-4.2,3.6-7.3,10.26-7.3
		c4.21,0,7.27,1.2,9.57,2.87l-2.8,4.14c-1.96-1.2-4.27-2-6.56-2s-3.38,0.6-3.38,1.82s0.96,1.71,5.58,3.05
		c4.58,1.29,7.56,2.85,7.56,7.47c0,5.18-5.14,7.81-11.17,7.81c-4.58,0-8.08-1.42-10.52-3.56l3.54-3.96
		c1.83,1.42,4.18,2.49,6.94,2.49C471.15,128.02,472.73,127.28,472.73,125.79z"/>
</g>
</svg>
