<?xml version="1.0" encoding="utf-8"?>
<!-- Generator: Adobe Illustrator 24.0.1, SVG Export Plug-In . SVG Version: 6.00 Build 0)  -->
<svg version="1.1" id="Capa_1" xmlns="http://www.w3.org/2000/svg" xmlns:xlink="http://www.w3.org/1999/xlink" x="0px" y="0px"
	 viewBox="0 0 485.23 507.9" style="enable-background:new 0 0 485.23 507.9;" xml:space="preserve">
<style type="text/css">
	.st0{fill:url(#SVGID_1_);}
	.st1{fill:url(#SVGID_2_);}
	.st2{fill:url(#SVGID_3_);}
	.st3{fill:url(#SVGID_4_);}
	.st4{fill:url(#SVGID_5_);}
	.st5{fill:url(#SVGID_6_);}
	.st6{fill:url(#SVGID_7_);}
	.st7{fill:url(#SVGID_8_);}
	.st8{fill:url(#SVGID_9_);}
	.st9{fill:url(#SVGID_10_);}
	.st10{fill:url(#SVGID_11_);}
	.st11{fill:url(#SVGID_12_);}
	.st12{fill:url(#SVGID_13_);}
	.st13{fill:url(#SVGID_14_);}
	.st14{fill:url(#SVGID_15_);}
	.st15{fill:#F0DCBE;}
	.st16{fill:#EBD2AF;}
	.st17{fill:#D2B493;}
	.st18{fill:#DD0031;}
	.st19{fill:#C3002F;}
	.st20{fill:#FFFFFF;}
	.st21{fill:url(#SVGID_16_);}
</style>
<g>
	<linearGradient id="SVGID_1_" gradientUnits="userSpaceOnUse" x1="144.8042" y1="321.1717" x2="160.0289" y2="611.7085">
		<stop  offset="0" style="stop-color:#3350B8"/>
		<stop  offset="0.628" style="stop-color:#117DE4"/>
		<stop  offset="1" style="stop-color:#0092F9"/>
	</linearGradient>
	<path class="st0" d="M142.8,377.81l0.29,3.96c2.45-3.06,5.73-4.59,9.85-4.59c3.63,0,6.33,1.07,8.11,3.2
		c1.77,2.13,2.68,5.32,2.72,9.56v22.14h-9.15v-21.91c0-1.94-0.42-3.35-1.27-4.23c-0.84-0.88-2.25-1.31-4.21-1.31
		c-2.58,0-4.51,1.1-5.79,3.29v24.16h-9.15v-34.26H142.8z"/>
	<linearGradient id="SVGID_2_" gradientUnits="userSpaceOnUse" x1="181.4849" y1="319.2495" x2="196.7095" y2="609.7864">
		<stop  offset="0" style="stop-color:#3350B8"/>
		<stop  offset="0.628" style="stop-color:#117DE4"/>
		<stop  offset="1" style="stop-color:#0092F9"/>
	</linearGradient>
	<path class="st1" d="M169.37,394.69c0-5.26,1.25-9.49,3.75-12.7c2.5-3.21,5.87-4.81,10.12-4.81c3.76,0,6.68,1.29,8.77,3.86
		l0.38-3.23h8.3v33.12c0,3-0.68,5.6-2.04,7.82c-1.36,2.22-3.28,3.91-5.75,5.07c-2.47,1.16-5.36,1.74-8.68,1.74
		c-2.51,0-4.96-0.5-7.35-1.5c-2.39-1-4.19-2.3-5.42-3.88l4.05-5.57c2.28,2.55,5.05,3.83,8.3,3.83c2.43,0,4.32-0.65,5.67-1.95
		s2.03-3.14,2.03-5.53v-1.84c-2.11,2.39-4.89,3.58-8.33,3.58c-4.12,0-7.45-1.61-9.99-4.83c-2.54-3.22-3.82-7.49-3.82-12.81V394.69z
		 M178.52,395.37c0,3.11,0.62,5.55,1.87,7.31c1.25,1.77,2.96,2.65,5.13,2.65c2.79,0,4.78-1.05,5.98-3.14v-14.43
		c-1.22-2.09-3.2-3.14-5.92-3.14c-2.2,0-3.92,0.9-5.18,2.7C179.15,389.11,178.52,391.79,178.52,395.37z"/>
	<linearGradient id="SVGID_3_" gradientUnits="userSpaceOnUse" x1="222.1147" y1="317.1205" x2="237.3394" y2="607.6573">
		<stop  offset="0" style="stop-color:#3350B8"/>
		<stop  offset="0.628" style="stop-color:#117DE4"/>
		<stop  offset="1" style="stop-color:#0092F9"/>
	</linearGradient>
	<path class="st2" d="M244.51,396.71c-0.36,4.96-2.19,8.87-5.5,11.72c-3.3,2.85-7.66,4.27-13.06,4.27c-5.91,0-10.56-1.99-13.95-5.97
		c-3.39-3.98-5.08-9.44-5.08-16.39v-2.82c0-4.43,0.78-8.34,2.34-11.72c1.56-3.38,3.79-5.97,6.7-7.77c2.9-1.8,6.28-2.71,10.12-2.71
		c5.32,0,9.61,1.43,12.86,4.28c3.25,2.85,5.13,6.85,5.64,12h-9.5c-0.23-2.98-1.06-5.13-2.49-6.48c-1.43-1.34-3.59-2.01-6.51-2.01
		c-3.17,0-5.54,1.14-7.11,3.4c-1.57,2.27-2.38,5.79-2.42,10.56v3.48c0,4.98,0.75,8.62,2.26,10.93c1.51,2.3,3.89,3.45,7.14,3.45
		c2.93,0,5.12-0.67,6.57-2.01c1.45-1.34,2.27-3.42,2.49-6.22H244.51z"/>
	<linearGradient id="SVGID_4_" gradientUnits="userSpaceOnUse" x1="260.2397" y1="315.1227" x2="275.4643" y2="605.6595">
		<stop  offset="0" style="stop-color:#3350B8"/>
		<stop  offset="0.628" style="stop-color:#117DE4"/>
		<stop  offset="1" style="stop-color:#0092F9"/>
	</linearGradient>
	<path class="st3" d="M259.08,381.54c2.43-2.91,5.48-4.37,9.15-4.37c7.43,0,11.2,4.32,11.31,12.95v21.95h-9.15v-21.69
		c0-1.96-0.42-3.41-1.27-4.35c-0.84-0.94-2.25-1.41-4.21-1.41c-2.68,0-4.62,1.03-5.83,3.1v24.35h-9.15v-48.64h9.15V381.54z"/>
	<linearGradient id="SVGID_5_" gradientUnits="userSpaceOnUse" x1="287.7552" y1="313.6808" x2="302.9798" y2="604.2177">
		<stop  offset="0" style="stop-color:#3350B8"/>
		<stop  offset="0.628" style="stop-color:#117DE4"/>
		<stop  offset="1" style="stop-color:#0092F9"/>
	</linearGradient>
	<path class="st4" d="M286.38,368.94c0-1.37,0.46-2.5,1.38-3.39c0.92-0.89,2.17-1.33,3.75-1.33c1.56,0,2.81,0.44,3.74,1.33
		s1.39,2.02,1.39,3.39c0,1.39-0.47,2.53-1.41,3.42s-2.18,1.33-3.72,1.33c-1.54,0-2.78-0.44-3.72-1.33
		C286.85,371.47,286.38,370.33,286.38,368.94z M296.1,412.07h-9.18v-34.26h9.18V412.07z"/>
	<linearGradient id="SVGID_6_" gradientUnits="userSpaceOnUse" x1="304.775" y1="312.7889" x2="319.9996" y2="603.3258">
		<stop  offset="0" style="stop-color:#3350B8"/>
		<stop  offset="0.628" style="stop-color:#117DE4"/>
		<stop  offset="1" style="stop-color:#0092F9"/>
	</linearGradient>
	<path class="st5" d="M313.29,412.07h-9.18v-48.64h9.18V412.07z"/>
	<linearGradient id="SVGID_7_" gradientUnits="userSpaceOnUse" x1="330.7721" y1="311.4266" x2="345.9967" y2="601.9635">
		<stop  offset="0" style="stop-color:#3350B8"/>
		<stop  offset="0.628" style="stop-color:#117DE4"/>
		<stop  offset="1" style="stop-color:#0092F9"/>
	</linearGradient>
	<path class="st6" d="M336.6,412.7c-5.02,0-9.12-1.54-12.27-4.62c-3.16-3.08-4.73-7.19-4.73-12.32v-0.89c0-3.44,0.67-6.52,2-9.23
		c1.33-2.71,3.21-4.8,5.65-6.27c2.44-1.47,5.22-2.2,8.34-2.2c4.69,0,8.38,1.48,11.07,4.43c2.69,2.96,4.04,7.15,4.04,12.57v3.74
		h-21.82c0.29,2.24,1.19,4.03,2.68,5.38c1.49,1.35,3.37,2.03,5.65,2.03c3.53,0,6.28-1.28,8.27-3.83l4.5,5.04
		c-1.37,1.94-3.23,3.46-5.57,4.54C342.05,412.16,339.45,412.7,336.6,412.7z M335.56,384.55c-1.82,0-3.29,0.61-4.42,1.85
		c-1.13,1.23-1.85,2.99-2.17,5.28h12.73v-0.73c-0.04-2.04-0.59-3.61-1.65-4.72C339,385.11,337.5,384.55,335.56,384.55z"/>
</g>
<g>
	<linearGradient id="SVGID_8_" gradientUnits="userSpaceOnUse" x1="20.3391" y1="327.6938" x2="35.5638" y2="618.2307">
		<stop  offset="0" style="stop-color:#3350B8"/>
		<stop  offset="0.628" style="stop-color:#117DE4"/>
		<stop  offset="1" style="stop-color:#0092F9"/>
	</linearGradient>
	<path class="st7" d="M0,435.39c0-0.78,0.62-1.4,1.4-1.4H35.5c11.76,0,21.3,8.25,21.3,25.71s-9.53,25.71-21.29,25.71H20.16v18.98
		c0,0.78-0.63,1.4-1.4,1.4H1.4c-0.78,0-1.4-0.63-1.4-1.4V435.39z M36.45,459.71c0-5.57-3.31-8.93-7.4-8.93h-8.2
		c-0.39,0-0.7,0.32-0.7,0.7v16.46c0,0.39,0.32,0.7,0.7,0.7h8.2C33.14,468.64,36.45,465.27,36.45,459.71z"/>
	<linearGradient id="SVGID_9_" gradientUnits="userSpaceOnUse" x1="73.9405" y1="324.885" x2="89.1651" y2="615.4219">
		<stop  offset="0" style="stop-color:#3350B8"/>
		<stop  offset="0.628" style="stop-color:#117DE4"/>
		<stop  offset="1" style="stop-color:#0092F9"/>
	</linearGradient>
	<path class="st8" d="M93.49,434.9l25.42,68.57c0.06,0.15,0.08,0.32,0.08,0.48v0.45c-0.01,0.77-0.63,1.4-1.4,1.4H99.96
		c-0.58,0-1.11-0.36-1.31-0.91l-3.81-10.32H71.9l-3.86,10.32c-0.2,0.55-0.73,0.91-1.31,0.91H49.08c-0.78,0-1.4-0.63-1.4-1.4v-0.45
		c0-0.17,0.03-0.33,0.08-0.49l25.41-68.56c0.2-0.55,0.73-0.91,1.31-0.91h17.69C92.76,433.99,93.28,434.36,93.49,434.9z M88.3,476.94
		l-4.96-13.26l-4.92,13.26H88.3z"/>
	<linearGradient id="SVGID_10_" gradientUnits="userSpaceOnUse" x1="139.445" y1="321.4525" x2="154.6696" y2="611.9894">
		<stop  offset="0" style="stop-color:#3350B8"/>
		<stop  offset="0.628" style="stop-color:#117DE4"/>
		<stop  offset="1" style="stop-color:#0092F9"/>
	</linearGradient>
	<path class="st9" d="M179.86,491.91c0.6,0.48,0.72,1.37,0.24,1.96c-6.91,8.55-17.5,14.02-29.39,14.02
		c-20.81,0-37.68-16.78-37.68-37.49s16.87-37.5,37.68-37.5c11.85,0,22.43,5.44,29.33,13.95c0.49,0.6,0.37,1.49-0.23,1.96
		l-13.83,10.96c-0.58,0.46-1.41,0.4-1.89-0.15c-3.22-3.65-8.21-6.39-13.37-6.39c-9.53,0-17.25,7.69-17.25,17.16
		s7.73,17.16,17.25,17.16c5.18,0,10.2-2.78,13.42-6.47c0.48-0.55,1.33-0.61,1.9-0.15L179.86,491.91z"/>
	<linearGradient id="SVGID_11_" gradientUnits="userSpaceOnUse" x1="205.6587" y1="317.9828" x2="220.8833" y2="608.5197">
		<stop  offset="0" style="stop-color:#3350B8"/>
		<stop  offset="0.628" style="stop-color:#117DE4"/>
		<stop  offset="1" style="stop-color:#0092F9"/>
	</linearGradient>
	<path class="st10" d="M244.71,504.38c0.02,0.78-0.62,1.42-1.4,1.42h-18.11c-0.76,0-1.37-0.62-1.4-1.38
		c-0.39-16.41-7.76-24.51-21.1-25.32v25.29c0,0.78-0.63,1.4-1.4,1.4h-17.36c-0.78,0-1.4-0.63-1.4-1.4v-69c0-0.78,0.62-1.4,1.4-1.4
		h17.35c0.78,0,1.4,0.63,1.4,1.4v25.29c13.34-0.81,20.71-8.91,21.1-25.32c0.02-0.76,0.63-1.38,1.4-1.38h18.11
		c0.78,0,1.42,0.64,1.4,1.42c-0.38,17.88-7.9,28.5-16.67,34.48C236.81,475.88,244.32,486.49,244.71,504.38z"/>
	<linearGradient id="SVGID_12_" gradientUnits="userSpaceOnUse" x1="272.5185" y1="314.4792" x2="287.7431" y2="605.0161">
		<stop  offset="0" style="stop-color:#3350B8"/>
		<stop  offset="0.628" style="stop-color:#117DE4"/>
		<stop  offset="1" style="stop-color:#0092F9"/>
	</linearGradient>
	<path class="st11" d="M292.61,434.9l25.42,68.57c0.06,0.15,0.08,0.32,0.08,0.48v0.45c-0.01,0.77-0.63,1.4-1.4,1.4h-17.63
		c-0.58,0-1.11-0.36-1.31-0.91l-3.81-10.32h-22.94l-3.86,10.32c-0.2,0.55-0.73,0.91-1.31,0.91h-17.64c-0.78,0-1.4-0.63-1.4-1.4
		v-0.45c0-0.17,0.03-0.33,0.08-0.49l25.41-68.56c0.2-0.55,0.73-0.91,1.31-0.91h17.69C291.88,433.99,292.41,434.36,292.61,434.9z
		 M287.42,476.94l-4.96-13.26l-4.92,13.26H287.42z"/>
	<linearGradient id="SVGID_13_" gradientUnits="userSpaceOnUse" x1="341.9863" y1="310.839" x2="357.211" y2="601.3759">
		<stop  offset="0" style="stop-color:#3350B8"/>
		<stop  offset="0.628" style="stop-color:#117DE4"/>
		<stop  offset="1" style="stop-color:#0092F9"/>
	</linearGradient>
	<path class="st12" d="M388.22,463.27v7.12v0.03c0,20.7-17.03,37.49-38.04,37.49c-21,0-38.04-16.78-38.04-37.49
		s17.03-37.5,38.04-37.5c12.37,0,23.35,5.83,30.29,14.84c0.48,0.61,0.34,1.5-0.28,1.96l-14.47,10.9c-0.61,0.46-1.49,0.35-1.94-0.27
		c-3.13-4.29-8.21-7.1-13.95-7.1c-9.53,0-17.25,7.68-17.25,17.16c0,9.47,7.73,17.16,17.25,17.16c6.38,0,11.94-3.45,14.92-8.58
		h-16.92c-0.78,0-1.4-0.63-1.4-1.4v-14.33c0-0.78,0.63-1.4,1.4-1.4h39C387.6,461.87,388.23,462.5,388.22,463.27z"/>
	<linearGradient id="SVGID_14_" gradientUnits="userSpaceOnUse" x1="404.3417" y1="307.5714" x2="419.5663" y2="598.1083">
		<stop  offset="0" style="stop-color:#3350B8"/>
		<stop  offset="0.628" style="stop-color:#117DE4"/>
		<stop  offset="1" style="stop-color:#0092F9"/>
	</linearGradient>
	<path class="st13" d="M390.35,504.4v-69c0-0.78,0.62-1.4,1.4-1.4h42.19c0.77,0,1.4,0.62,1.4,1.4v14.33c0,0.77-0.62,1.4-1.4,1.4
		H410.5v10.21h20.25c0.77,0,1.4,0.62,1.4,1.4v14.33c0,0.77-0.62,1.4-1.4,1.4H410.5v10.21h23.44c0.77,0,1.4,0.62,1.4,1.4v14.32
		c0,0.77-0.62,1.4-1.4,1.4h-42.19C390.98,505.8,390.35,505.17,390.35,504.4z"/>
	<linearGradient id="SVGID_15_" gradientUnits="userSpaceOnUse" x1="452.4733" y1="305.0493" x2="467.6979" y2="595.5861">
		<stop  offset="0" style="stop-color:#3350B8"/>
		<stop  offset="0.628" style="stop-color:#117DE4"/>
		<stop  offset="1" style="stop-color:#0092F9"/>
	</linearGradient>
	<path class="st14" d="M480.32,450.41c-0.08,0.83-0.86,1.41-1.68,1.23c-2.56-0.55-7.95-1.55-13.11-1.64
		c-7.11-0.12-8.04,4.43-8.04,5.71s0.81,6.06,9.33,8.16c8.51,2.1,18.06,9.79,18.06,23.43c0,13.64-7.8,20.61-27.39,20.61
		c-7.13,0-12.75-0.58-15.2-0.89c-0.75-0.09-1.28-0.76-1.21-1.52l1.35-13.98c0.08-0.83,0.87-1.42,1.69-1.23
		c2.47,0.55,7.58,1.54,12.69,1.62c7.11,0.12,8.04-4.43,8.04-5.71s-0.81-6.06-9.33-8.16c-8.51-2.1-18.06-9.8-18.06-23.43
		c0-13.63,10.6-20.61,27.39-20.61c6.14,0,12.78,0.62,15.59,0.92c0.76,0.08,1.3,0.77,1.23,1.53L480.32,450.41z"/>
</g>
<polygon class="st15" points="245.01,111.63 147.17,156.78 245.01,201.94 342.86,156.78 "/>
<path class="st16" d="M340.67,274.45l-95.65,44.15V201.94l97.84-45.16v114.25C342.86,272.5,342,273.83,340.67,274.45z"/>
<path class="st17" d="M149.36,274.45l95.66,44.15V201.94l-97.84-45.16v114.25C147.17,272.5,148.03,273.83,149.36,274.45z"/>
<path class="st15" d="M342.86,156.78l-97.84,45.16l17.49,52.46c0.71,2.13,3.11,3.17,5.15,2.23l90.97-41.98
	c1.74-0.8,2.6-2.79,1.99-4.61L342.86,156.78z"/>
<path class="st16" d="M147.17,156.78l97.84,45.16l-17.49,52.46c-0.71,2.13-3.11,3.17-5.15,2.23l-90.97-41.98
	c-1.74-0.8-2.6-2.79-1.99-4.61L147.17,156.78z"/>
<polygon class="st17" points="342.86,156.78 245.01,111.63 245.01,201.94 "/>
<g>
	<polygon class="st18" points="244.62,85 244.62,85 244.62,85 205.4,98.99 211.38,150.84 244.62,169.25 244.62,169.25 
		244.62,169.25 277.85,150.84 283.84,98.99 	"/>
	<polygon class="st19" points="244.62,85 244.62,94.35 244.62,94.31 244.62,136.98 244.62,136.98 244.62,169.25 244.62,169.25 
		277.85,150.84 283.84,98.99 	"/>
	<path class="st20" d="M244.62,94.31l-24.52,54.97l0,0h9.14l0,0l4.93-12.3h20.81l4.93,12.3l0,0h9.14l0,0L244.62,94.31L244.62,94.31
		L244.62,94.31L244.62,94.31L244.62,94.31z M251.78,129.4h-14.32l7.16-17.23L251.78,129.4z"/>
</g>
<linearGradient id="SVGID_16_" gradientUnits="userSpaceOnUse" x1="242.7297" y1="-7.8925" x2="242.7297" y2="210.3273">
	<stop  offset="0" style="stop-color:#CCE0F4;stop-opacity:0"/>
	<stop  offset="0.1875" style="stop-color:#A5CDF4;stop-opacity:0.1885"/>
	<stop  offset="0.9944" style="stop-color:#007BF3"/>
</linearGradient>
<polygon class="st21" points="485.23,0 0.23,0 147.23,157 245.23,202 343.23,157 "/>
</svg>
